<svg width="220" height="525" viewBox="0 0 220 525" fill="none" xmlns="http://www.w3.org/2000/svg">
<path d="M32.2998 81.7996C32.2998 81.7996 32.9998 67.7996 31.9998 65.2996L24.1998 51.5996C24.1998 51.5996 22.8998 51.2997 22.8998 54.1997C22.9998 56.0997 23.5998 57.8997 24.7998 59.3997L24.9998 63.0996L22.2998 61.2996L16.4998 52.5996C16.4998 52.5996 12.8998 46.7997 11.6998 47.3997C9.4998 48.4997 11.3998 50.6997 13.1998 53.3997L17.0998 59.5996C17.0998 59.5996 17.6998 60.6997 15.7998 59.1997C13.8998 57.6997 9.39979 49.8997 8.49979 48.8997C7.59979 47.8997 6.2998 45.0997 4.6998 45.8997C3.0998 46.6997 5.59977 50.0996 5.59977 50.0996L12.1998 61.6997C12.1998 61.6997 8.59979 57.3997 7.99979 56.6997C7.39979 55.9997 5.7998 53.4996 4.6998 52.2996C3.5998 51.0996 2.3998 50.6996 1.6998 51.0996C0.999804 51.3996 0.599816 52.2996 0.899816 52.9996L7.59977 62.3997C7.59977 62.3997 10.8998 66.5997 10.8998 66.8997C10.8998 67.1997 8.1998 65.6997 8.1998 65.6997L5.49979 62.8997C5.49979 62.8997 2.49977 58.5997 1.09977 58.8997C-0.300232 59.1997 0.0997676 60.2996 0.0997676 60.2996L5.79978 68.1997L13.6998 76.4996L20.3998 82.4996C20.9998 83.8996 21.6998 85.1996 22.4998 86.4996C22.5998 86.7996 32.2998 81.7996 32.2998 81.7996Z" fill="#FC9D9D"/>
<path opacity="0.3" d="M24.2001 64.5C24.2001 64.5 22.0001 70 23.9001 74.5" stroke="black" stroke-width="0.6" stroke-miterlimit="10" stroke-linecap="round"/>
<path d="M84.8004 128.4L93.0004 118.7L95.8004 223.2C95.9004 223.7 96.3004 224.1 96.8004 224.2H190.8C192 224.2 193 223.2 193.1 222L196.1 132.3L212.8 93.7C212.8 84.1 204.4 80.5 197.7 78.7L162.2 70L159.5 73.1C153.6 79.8 143.4 80.4 136.7 74.6C135.2 73.3 134 71.7 133.1 70H136L98.2004 73.6H98.0004C92.9004 74 88.2004 76.4 84.8004 80.2L65.9004 110.1L84.8004 128.4Z" fill="#21252B"/>
<path opacity="0.3" d="M165.2 89.5016C165.2 89.5016 162.8 82.3016 158.8 81.5016L143.7 91.9015C143.7 91.9015 137.3 83.9016 129.3 81.5016C126.4 83.2016 124 85.7016 122.3 88.7016L122.9 77.6015L162 76.8016C162 76.7016 166.8 86.3016 165.2 89.5016Z" fill="black"/>
<path d="M65.9002 110.202L61.4002 117.302L31.7002 76.6016L19.2002 81.4016L49.1002 143.002C50.4002 146.902 53.7002 149.802 57.7002 150.802H57.9002C61.6002 151.502 65.3002 150.502 68.1002 148.002L84.8002 128.302L65.9002 110.202Z" fill="#FC9D9D"/>
<path d="M162.1 67.6016L163.7 69.0016C163.7 69.0016 169.9 78.3015 166.3 88.9016L165.1 89.5016L165 88.6016C164.6 84.7016 162.1 81.3016 158.6 79.7016C153.2 83.3016 148.2 87.4016 143.7 91.9016C143.7 91.9016 136.9 82.1016 129.5 79.9016C129.5 79.9016 124.1 80.8016 122.3 88.7016L121.2 88.5016C121.2 88.5016 118.7 76.7016 124.4 70.0016L127.9 67.0016C128.9 66.4016 130 66.1016 131.1 66.1016H158.1C159.6 66.1016 161 66.6016 162.1 67.6016Z" fill="#21252B"/>
<path d="M162.1 67.6016L163.7 69.0016C163.7 69.0016 169.9 78.3015 166.3 88.9016L165.1 89.5016L165 88.6016C164.6 84.7016 162.1 81.3016 158.6 79.7016C153.2 83.3016 148.2 87.4016 143.7 91.9016C143.7 91.9016 136.9 82.1016 129.5 79.9016C129.5 79.9016 124.1 80.8016 122.3 88.7016L121.2 88.5016C121.2 88.5016 118.7 76.7016 124.4 70.0016L127.9 67.0016C128.9 66.4016 130 66.1016 131.1 66.1016H158.1C159.6 66.1016 161 66.6016 162.1 67.6016Z" fill="white"/>
<path opacity="0.2" d="M61.0996 116.098L63.2996 120.198C63.8996 120.898 64.9996 120.998 65.6996 120.398C65.7996 120.298 65.7997 120.298 65.8997 120.198L64.0996 112.898L61.0996 116.098Z" fill="black"/>
<path opacity="0.3" d="M93.0996 118.9L96.0996 117.5C96.3996 117.4 96.6996 117.5 96.7996 117.7C96.8996 117.8 96.8996 118 96.7996 118.2L93.3997 125.7L93.0996 118.9Z" fill="black"/>
<path opacity="0.3" d="M172.5 224.199L180.2 224.399H190.8C192.2 224.399 193.3 223.299 193.3 221.999L198.2 132.499L190 126.799C189.5 125.599 188 124.999 186.8 125.599C186 125.999 185.4 126.699 185.4 127.599L184.8 172.899L172.5 224.199Z" fill="black"/>
<path opacity="0.2" d="M172.5 224.199L169.9 231.799L168.4 229.299C167.8 229.899 167.6 230.899 167.9 231.699C170.9 238.499 175.399 244.499 181.099 249.199L176.8 224.299L172.5 224.199Z" fill="black"/>
<path d="M212.5 93L219.7 173.1C220 176.6 219.1 180 217.1 182.9L186.3 235.4C187.3 240.6 185.3 246 181.1 249.3C181.1 249.3 173.9 241.2 171.2 233.5L194.4 175.3L194 136.1L212.5 93Z" fill="#FC9D9D"/>
<path d="M159.5 70.5005C159.5 70.9005 145.4 89.0005 143.4 89.0005C141.5 88.0005 129.4 72.1005 129.5 71.7005L130 61.0005V55.0005C129.7 53.6005 128 52.3005 128 50.5005C127.5 42.0005 126.5 34.4005 126.5 34.4005C126.5 34.4005 154.2 15.9005 155.9 37.4005L156.6 40.5005L159.5 70.5005Z" fill="#FC9D9D"/>
<path d="M189.6 136.998L187.9 123.698L212.8 91.8984L216.3 132.898L189.6 136.998Z" fill="#21252B"/>
<path d="M189.6 137.002L194.5 175.302L174.8 224.702L186.4 235.502L217.2 183.002C219.2 180.102 220.1 176.602 219.8 173.202L216.4 133.102L189.6 137.002Z" fill="#FC9D9D"/>
<path d="M87.1003 126.002L67.7004 107.602L65.9004 110.402L84.8004 128.602L87.1003 126.002Z" fill="white"/>
<path d="M215.9 128.602L189.1 133.202L189.6 137.202L216.3 133.202L215.9 128.602Z" fill="white"/>
<path d="M117.599 3.69975C121.899 2.39975 126.299 6.29974 130.699 5.49974C133.399 4.99974 135.399 2.89974 137.799 1.59974C144.299 -2.20026 155.399 0.999744 156.299 9.09974C165.099 6.59974 170.699 19.3997 167.099 27.7997C164.199 34.5997 162.799 40.0997 156.599 44.0997C153.199 33.8997 161.399 20.5997 146.599 16.0997C137.299 14.3997 131.699 25.4997 122.799 25.7997C116.399 26.7997 111.599 17.1997 118.599 14.7997C112.499 14.3997 111.699 5.39975 117.599 3.69975Z" fill="black"/>
<path d="M124 14.0016C124 14.0016 112.1 60.0016 136.1 63.3016C156.9 66.1016 159.3 33.7016 159.3 33.7016L158.4 18.6016L142.4 12.1016L124 14.0016Z" fill="#FC9D9D"/>
<path opacity="0.15" d="M158.1 41.6992C157 41.4992 156 40.6992 155.6 39.6992L158.3 44.6992L158.1 41.6992Z" fill="black"/>
<path opacity="0.15" d="M150 58.6992C147.4 61.6992 143.7 63.6993 139.8 64.0993C136.8 65.9993 133.3 66.9993 129.8 66.7993L130.3 60.8993L131.1 61.3993C137.2 64.7993 144.9 63.3993 149.4 58.0993C149.5 57.8993 149.9 57.8993 150 57.9993C150.1 58.1993 150.1 58.4992 150 58.6992Z" fill="black"/>
<path d="M140.8 33.1016C141.9 33.1016 142.8 34.0016 142.8 35.1016C142.8 36.2016 141.9 37.1016 140.8 37.1016C139.7 37.1016 138.8 36.2016 138.8 35.1016V35.0016C138.9 34.0016 139.7 33.1016 140.8 33.1016Z" fill="black"/>
<path d="M139.8 34.9016C140.021 34.9016 140.2 34.7216 140.2 34.5016C140.2 34.2806 140.021 34.1016 139.8 34.1016C139.579 34.1016 139.4 34.2806 139.4 34.5016C139.4 34.7216 139.579 34.9016 139.8 34.9016Z" fill="white"/>
<path d="M125.4 37.1016C126.505 37.1016 127.4 36.2056 127.4 35.1016C127.4 33.9966 126.505 33.1016 125.4 33.1016C124.295 33.1016 123.4 33.9966 123.4 35.1016C123.4 36.2056 124.295 37.1016 125.4 37.1016Z" fill="black"/>
<path d="M124.5 34.8C124.721 34.8 124.9 34.621 124.9 34.4C124.9 34.179 124.721 34 124.5 34C124.279 34 124.1 34.179 124.1 34.4C124.1 34.621 124.279 34.8 124.5 34.8Z" fill="white"/>
<path opacity="0.2" d="M132 46.2005L134.5 46.4006C134.8 46.4006 135.1 46.2006 135.2 45.9006C135.2 45.6006 135 45.4006 134.7 45.3006L132.2 45.1006C131.6 45.0006 131 44.4006 131.2 43.9006C131.4 43.4006 131.9 42.8006 132.4 42.9006C132.7 42.9006 132.9 42.7006 133.1 42.4006C133.2 42.1006 132.9 41.9005 132.6 41.8005C131.4 41.7005 130.3 42.6006 130.1 43.9006C129.8 45.0006 130.8 46.1005 132 46.2005Z" fill="black"/>
<path d="M139.1 50C139.4 50 139.5 50.2 139.4 50.5C138.7 53.2 135.9 54.7 133.2 54C131.9 53.6 130.8 52.7 130.1 51.5C130 51.3 130.1 51.1 130.2 51H130.3L139.1 50Z" fill="white"/>
<path d="M120.2 21.5013C125.2 23.0013 130.6 22.0013 134.7 18.9013C137.5 16.7013 139.8 13.5013 143.2 12.6013C145.6 12.1013 148.1 12.5013 150.1 13.9013C152.1 15.2013 153.8 17.0013 155.2 19.0013C153.8 25.5013 154.5 35.9013 155 36.3013C155.9 37.0013 156.5 36.9013 157.3 36.1013C158.6 34.8013 159.9 30.2013 160.3 28.4013C161.2 24.3013 161.5 25.0013 160.8 20.9013C160.1 16.8013 159.2 12.8013 156.3 9.80129C152.6 6.10129 147.6 3.90129 142.3 3.80129C137 3.70129 131.9 5.30129 127.6 8.30129C125.5 9.60129 123.8 11.4013 122.7 13.5013L120.2 21.5013Z" fill="black"/>
<path d="M157.1 21.0015C154.5 19.1015 151 19.3015 148.5 21.3015C148.1 21.7015 147.6 22.1015 147 22.5015C146.5 22.9015 145.8 22.9015 145.2 22.5015C144.8 22.1015 144.6 21.5015 144.8 21.0015C145 20.5015 145.2 20.0015 145.6 19.5015C143.2 22.1015 139.8 23.5015 136.3 23.4015C134.9 23.3015 133.2 22.9015 132.6 21.6015C132 20.3015 132.6 18.6015 133.6 17.4015C138 11.6015 146.2 10.4015 152.1 14.8015C154 16.2015 155.5 18.2015 156.4 20.4015" fill="black"/>
<path d="M157.5 31.2001C158 29.2001 160.001 28.0001 161.901 28.5001C162.101 28.5001 162.3 28.6001 162.5 28.7001C167.1 30.2001 166 39.6001 159.7 41.5001C155.8 42.2001 156.4 39.9001 156.8 36.7001L157.5 31.2001Z" fill="#FC9D9D"/>
<path opacity="0.2" d="M163 31.3008C162.3 30.8008 161.5 30.7008 160.8 31.0008C160.1 31.3008 159.5 31.8008 159.2 32.5008C158.8 33.4008 158.6 34.3008 158.7 35.3008V36.1008C158.7 36.4008 159 36.5008 159.2 36.5008C159.5 36.5008 159.6 36.2008 159.6 36.0008V35.0008C159.6 34.2008 159.7 33.4008 159.9 32.7008C160.1 32.3008 160.5 31.9008 160.9 31.7008C161.4 31.6008 161.9 31.7008 162.3 31.9008C162.5 32.0008 162.8 31.9008 162.9 31.7008C163.3 31.7008 163.2 31.5008 163 31.3008Z" fill="black"/>
<path d="M148.3 33.5016L156.9 32.5016L156.8 31.3016L148.3 32.2016C148.3 30.7016 147.1 29.6016 145.6 29.6016L136.6 29.9016H136.5L129.6 30.1016H128.5L120.5 30.4016C119.1 30.6016 118 31.8016 118 33.3016L118.1 35.4016C118.1 39.3016 121.2 42.6016 125.2 42.6016C129.1 42.6016 132.4 39.5016 132.4 35.5016C132.4 35.3016 132.4 35.1016 132.4 34.9016L132.3 32.8016C132.3 32.2016 132.1 31.6016 131.7 31.1016L134.5 31.0016C134.1 31.5016 133.9 32.1016 134 32.6016L134.1 34.7016C134 38.6016 137.2 41.9016 141.2 41.9016C145.2 41.9016 148.4 38.8016 148.4 34.8016C148.4 34.6016 148.4 34.4016 148.4 34.2016L148.3 33.5016ZM125.6 41.5016C122.2 41.7016 119.4 39.1016 119.2 35.8016C119.2 35.7016 119.2 35.6016 119.2 35.5016L119.1 33.4016C119.1 32.5016 119.8 31.8016 120.6 31.7016L128.6 31.4016H129.7C130.6 31.4016 131.3 32.1016 131.3 33.0016L131.4 35.1016C131.5 38.4016 128.9 41.3016 125.6 41.5016ZM141.4 40.9016C138 41.1016 135.2 38.5016 135 35.2016C135 35.1016 135 35.0016 135 34.8016L134.9 32.7016C135 31.9016 135.6 31.2016 136.5 31.1016L145.5 30.8016C146.4 30.8016 147.1 31.5016 147.1 32.4016L147.2 34.5016C147.3 37.9016 144.7 40.8016 141.4 40.9016Z" fill="black"/>
<path d="M112 514.298L67.0996 515.398L84.9996 502.598C87.8996 500.498 89.6996 497.198 89.7996 493.598L90.5996 479.398L115 479.498L112 514.298Z" fill="#FC9D9D"/>
<path opacity="0.15" d="M107 497.9V497.6C107.2 496.1 106.1 494.7 104.5 494.4L90 492.3L90.2 489.5H114.4L112.2 513.3L92.6 511.1L99.1 508.6C103.5 506.8 106.5 502.6 107 497.9Z" fill="black"/>
<path d="M192.8 513.401H172.6L168.9 479.301L192.7 479.401L192.8 513.401Z" fill="#FC9D9D"/>
<path opacity="0.15" d="M187.7 507.698L187.2 497.198C187.1 495.798 186.1 494.698 184.8 494.498L170.3 492.298L170 489.398L192.7 489.498L192.8 513.698L187.7 507.698Z" fill="black"/>
<path d="M189.6 223.898L194 491.098H167.8L145.1 263.498C144.9 261.998 143.7 260.898 142.2 260.898C140.7 260.898 139.5 261.998 139.4 263.498L115.1 491.098H89L95 223.898H189.6Z" fill="#4D61FC"/>
<path opacity="0.2" d="M194.8 491.098H166.8L166.3 485.398H194.7L194.8 491.098Z" fill="black"/>
<path opacity="0.2" d="M105 489.5L125.3 273.1C126.1 266.2 132 261 138.9 261H142.1C140.6 261 139.4 262.1 139.3 263.6L115.2 489.9L105 489.5Z" fill="black"/>
<path opacity="0.2" d="M189.6 223.9L194.1 485.2L182.8 485.3L177.4 212L189.6 223.9Z" fill="black"/>
<path d="M51 521.702V520.702C51 517.502 53.6 514.902 56.8 514.902H64.8C66.5 514.902 68.1 514.302 69.3 513.102L89.8 493.602L96.2 502.002C98 504.402 101.5 504.902 103.9 503.002C104.2 502.702 104.5 502.502 104.8 502.102C105.8 500.902 107.4 500.102 109 500.102H113.3V521.202L51 521.702Z" fill="#3F4249"/>
<path d="M51 521.698V524.898H113.4V521.398L51 521.698Z" fill="black"/>
<path d="M93.8998 498.901L79.9998 510.201C78.4998 511.401 76.1998 511.301 74.7998 509.901L73.7998 508.901L89.7998 493.701C90.5998 493.501 91.5998 493.801 92.0998 494.501L93.7998 496.901C94.1998 497.401 94.2998 498.201 94.0998 498.801L93.8998 498.901Z" fill="black"/>
<path d="M175.2 497.999H173.5C172 497.999 170.7 499.199 170.5 500.699L170.2 506.999C170.1 508.899 169.6 510.898 168.7 512.598L168.1 513.699C167 515.899 166.4 518.298 166.4 520.798V521.899H198.4C198.4 518.799 197.4 515.699 195.7 513.199C194.4 511.299 193.6 509.099 193.3 506.699L192.6 500.399C192.3 498.999 191 497.899 189.5 497.999H188.4" fill="#3F4249"/>
<path d="M198.2 521.801H166.3V524.901H198.2V521.801Z" fill="black"/>
<path d="M179.4 495.102H184.1C186.3 495.102 188.1 496.902 188.1 499.102C188.1 499.202 188.1 499.402 188.1 499.502L187.1 508.102C186.7 510.702 184.5 512.702 181.9 512.702C179.2 512.702 176.9 510.702 176.7 508.002L175.7 499.402C175.4 497.302 176.8 495.402 178.9 495.102C179 495.102 179.2 495.102 179.4 495.102Z" fill="black"/>
<path d="M173.3 500.801H190.2" stroke="white" stroke-width="1.15" stroke-linecap="round" stroke-linejoin="round"/>
<path d="M173.8 504.801H189.7" stroke="white" stroke-width="1.15" stroke-linecap="round" stroke-linejoin="round"/>
<path d="M174.3 508.699H189.3" stroke="white" stroke-width="1.15" stroke-linecap="round" stroke-linejoin="round"/>
<path d="M78 502.898L84.2 508.798" stroke="white" stroke-width="1.15" stroke-linecap="round" stroke-linejoin="round"/>
<path d="M81.4004 499.898L87.7004 505.898" stroke="white" stroke-width="1.15" stroke-linecap="round" stroke-linejoin="round"/>
<path d="M84.7998 497L91.0998 502.9" stroke="white" stroke-width="1.15" stroke-linecap="round" stroke-linejoin="round"/>
</svg>
